# xmcd CD database file
#
# Track frame offsets:
#	150
#	12458
#	25839
#	43415
#	51983
#	64496
#	73331
#	93824
#	104963
#	117379
#	128999
#
# Disc length: 1884 seconds
#
# Revision: 0
# Processed by: cddbd v1.5.1PL0 Copyright (c) Steve Scherf et al.
# Submitted via: CDex 1.51
#
DISCID=ae075a0b
DTITLE=Conway Twitty - The Gospel Spirit
DYEAR=2004
DGENRE=Country
TTITLE0=Clinging To A Saving Hand
TTITLE1=Suppertime
TTITLE2=The Third Man
TTITLE3=The Big Man Above
TTITLE4=In Loving Memories
TTITLE5=Me And My Neighbors
TTITLE6=Steal Away
TTITLE7=Lead Us Back To Love
TTITLE8=Who Will Pray For Me
TTITLE9=Jesus Is A Soul Man
TTITLE10=If We Want Love To Last
EXTD=YEAR: 2004
EXTT0=
EXTT1=
EXTT2=
EXTT3=
EXTT4=
EXTT5=
EXTT6=
EXTT7=
EXTT8=
EXTT9=
EXTT10=
PLAYORDER=
